<svg data-name="Layer 1" xmlns="http://www.w3.org/2000/svg" viewBox="0 0 491 276"><defs><linearGradient id="a" x1="-3494.44" y1="9393.47" x2="-3397.16" y2="9101.77" gradientTransform="matrix(1 0 0 -1 3694 9393.75)" gradientUnits="userSpaceOnUse"><stop offset=".31" stop-color="#00241e" stop-opacity=".06"/><stop offset=".92" stop-color="#35fbd7"/></linearGradient><linearGradient id="b" x1="-3494.35" y1="9393.22" x2="-3397.07" y2="9101.51" gradientTransform="matrix(1 0 0 -1 3694 9393.75)" gradientUnits="userSpaceOnUse"><stop offset=".31" stop-color="#00241e" stop-opacity="0"/><stop offset=".92" stop-color="#35fbd7"/></linearGradient></defs><path fill="none" d="M0 0h491v276H0z"/><path d="M352.41 158.68c-23.35-23.36-47.2-10.85-82-45.62-35.17-35.16-21.67-58.13-45.37-81.83-22.4-22.43-61.12-25.23-86.31 0a60.9 60.9 0 0 0-.07 86.13c24.28 24.27 46.36 10 81.9 45.58 35.69 35.69 21.28 57.59 45.58 81.9a61 61 0 0 0 86.27-86.16z" fill="url(#a)"/><path d="M352.41 158.68c-23.35-23.36-47.2-10.85-82-45.62-35.17-35.16-21.67-58.13-45.37-81.83-22.4-22.43-61.12-25.23-86.31 0a60.9 60.9 0 0 0-.07 86.13c24.28 24.27 46.36 10 81.9 45.58 35.69 35.69 21.28 57.59 45.58 81.9a61 61 0 0 0 86.27-86.16z" fill="url(#b)"/></svg>