<svg data-name="Layer 1" xmlns="http://www.w3.org/2000/svg" xmlns:xlink="http://www.w3.org/1999/xlink" viewBox="0 0 491 276"><defs><linearGradient id="b" x1="-3448.52" y1="9287.67" x2="-3448.52" y2="9123.6" gradientTransform="matrix(1 0 0 -1 3694 9393.75)" gradientUnits="userSpaceOnUse"><stop offset="0" stop-color="#223d57"/><stop offset="1" stop-color="#223d57" stop-opacity="0"/></linearGradient><linearGradient id="c" x1="-3448.32" y1="9241.93" x2="-3448.32" y2="9227.29" gradientTransform="matrix(1 0 0 -1 3694 9393.75)" gradientUnits="userSpaceOnUse"><stop offset="0" stop-color="#0078d4"/><stop offset="1" stop-color="#0078d4" stop-opacity="0"/></linearGradient><linearGradient id="a" x1="-3398.75" y1="9316.31" x2="-3398.75" y2="9250.02" gradientTransform="matrix(1 0 0 -1 3694 9393.75)" gradientUnits="userSpaceOnUse"><stop offset="0" stop-color="#487dac"/><stop offset="1" stop-color="#487dac" stop-opacity="0"/></linearGradient><linearGradient id="d" x1="-3498.67" y1="9316.31" x2="-3498.67" y2="9250.02" xlink:href="#a"/></defs><path fill="none" d="M0 0h491v276H0z"/><path d="M159.62 213.9a17.9 17.9 0 1 0 17.93 17.9 17.92 17.92 0 0 0-17.93-17.9z" stroke-width="1.91" stroke="#0078d4" fill="none"/><path d="M216.86 213.9a17.9 17.9 0 1 0 17.93 17.9 17.92 17.92 0 0 0-17.93-17.9z" stroke="#107c10" stroke-width="1.91" fill="none"/><path d="M331.34 213.9a17.9 17.9 0 1 0 17.93 17.9 17.92 17.92 0 0 0-17.93-17.9z" stroke="#d83b02" stroke-width="1.91" fill="none"/><path d="M274.1 213.9a17.9 17.9 0 1 0 17.9 17.9 17.92 17.92 0 0 0-17.9-17.9z" stroke="#5c2d91" stroke-width="1.91" fill="none"/><path d="M138 32.64v146.88a6 6 0 0 0 6 6h202.92a6 6 0 0 0 6.05-6V32.64a6 6 0 0 0-6.05-6H144a6 6 0 0 0-6 6z" fill="url(#b)"/><path d="M220.54 147.45v8.74a2.11 2.11 0 0 0 2.12 2.11h46a2.11 2.11 0 0 0 2.12-2.11v-8.74a2.12 2.12 0 0 0-2.12-2.11h-46a2.12 2.12 0 0 0-2.12 2.11z" fill="url(#c)"/><path d="M138 48v16.38h215V48z" fill="#244663"/><path d="M251 80.28v43.93a2.42 2.42 0 0 0 2.42 2.42h83.59a2.42 2.42 0 0 0 2.42-2.42V80.28a2.41 2.41 0 0 0-2.42-2.41h-83.55a2.41 2.41 0 0 0-2.46 2.41z" fill="url(#a)"/><path d="M151.12 80.28v43.93a2.42 2.42 0 0 0 2.42 2.42h83.59a2.42 2.42 0 0 0 2.42-2.42V80.28a2.41 2.41 0 0 0-2.42-2.41h-83.59a2.41 2.41 0 0 0-2.42 2.41z" fill="url(#d)"/><path d="M138 48.06V32.34a6 6 0 0 1 6-6h202.92a6 6 0 0 1 6.05 6v15.72z" fill="#142334"/><path d="M173.35 231.8a13.74 13.74 0 1 0-13.74 13.71 13.73 13.73 0 0 0 13.74-13.71z" fill="#0078d4"/></svg>