<svg xmlns="http://www.w3.org/2000/svg" viewBox="0 0 31 31"><path d="M15.5 0C6.9 0 0 6.9 0 15.5S6.9 31 15.5 31 31 24.1 31 15.5 24.1 0 15.5 0zm10.3 7.2c1.9 2.3 3 5.2 3 8.3-3-.6-6.2-.7-9.2-.4-.1-.2-.2-.5-.3-.7-.3-.6-.6-1.3-.9-1.9 2.8-1.2 5.4-3 7.4-5.3zM15.5 2.3c3.2 0 6.4 1.2 8.8 3.3-1.8 2.2-4.2 3.9-6.9 4.8-1.5-2.7-3.1-5.3-4.9-7.7.9-.3 2-.4 3-.4zM9.9 3.5c1.8 2.5 3.4 5 4.9 7.7-4 1-8.1 1.6-12.2 1.6.8-4.1 3.5-7.5 7.3-9.3zm-7.6 12v-.4c4.6 0 9.2-.6 13.6-1.9.4.7.7 1.5 1.1 2.3l-.5.2C9.6 17.8 6 23.9 5.7 24.4c-2.2-2.5-3.4-5.6-3.4-8.9zm13.2 13.3c-2.9 0-5.8-1-8.1-2.8.2-.5 2.9-5.7 10.4-8.3h.1c1.3 3.2 2.2 6.6 2.8 10-1.7.7-3.4 1.1-5.2 1.1zm7.4-2.3c-.6-3.2-1.4-6.4-2.6-9.4 2.8-.4 5.6-.2 8.2.6-.5 3.5-2.6 6.8-5.6 8.8z" fill="#a0a0a0"/></svg>