<svg width="90" height="33" viewBox="0 0 90 33" fill="none" xmlns="http://www.w3.org/2000/svg"><path d="M37.076 11h-5.598c-.77 0-1.394.615-1.394 1.372 0 .757.625 1.372 1.394 1.372h.006c.769 0 1.393.615 1.393 1.372v8.25c0 .757.625 1.372 1.394 1.372.769 0 1.394-.615 1.394-1.372v-8.25a1.387 1.387 0 011.393-1.366h.006c.77 0 1.394-.615 1.394-1.372 0-.757-.613-1.378-1.382-1.378zm-19.565 0h-6.29c-.768 0-1.393.615-1.393 1.372v11c0 .757.625 1.372 1.394 1.372.769 0 1.393-.615 1.393-1.372v-2.75c0-.757.625-1.372 1.394-1.372h.709c.769 0 1.393.615 1.393 1.372v2.75c0 .757.625 1.372 1.394 1.372.769 0 1.394-.615 1.394-1.372v-11C18.91 11.615 18.286 11 17.51 11zm-2.793 5.5h-.71a1.384 1.384 0 01-1.393-1.372c0-.757.625-1.372 1.394-1.372h.709c.769 0 1.393.615 1.393 1.372.006.757-.618 1.372-1.393 1.372zM6.992 11H1.394C.624 11 0 11.615 0 12.372v11c0 .757.625 1.372 1.394 1.372.769 0 1.393-.615 1.393-1.372v-2.75c0-.757.625-1.372 1.394-1.372h1.268c.768 0 1.393-.615 1.393-1.372 0-.757-.625-1.372-1.393-1.372H4.187a1.384 1.384 0 01-1.394-1.372c0-.757.625-1.372 1.394-1.372h2.8c.768 0 1.393-.615 1.393-1.372 0-.757-.619-1.39-1.388-1.39zm20.298 4.37c.77 0 1.395-.615 1.395-1.371v-1.621c0-.757-.625-1.372-1.394-1.372h-5.593c-.769 0-1.394.615-1.394 1.372 0 3.318 1.779 5.068 3.208 6.47.625.61 1.184 1.165 1.604 1.798.475.75-.018 1.354-.78 1.354h-.241c-.769 0-1.003 0-1.003-.36v.029a1.385 1.385 0 00-1.394-1.283c-.769 0-1.394.615-1.394 1.372v1.62c0 .757.625 1.372 1.394 1.372h5.593c.769 0 1.393-.615 1.393-1.372 0-3.318-1.778-5.068-3.207-6.47-.625-.609-1.184-1.165-1.604-1.798-.475-.75.018-1.354.78-1.354h.24c.77 0 1.004 0 1.004.36v-.029a1.385 1.385 0 001.394 1.284zm40.46-1.94c-1.016-1.502-2.548-2.33-4.308-2.33h-3.49c-.77 0-1.394.616-1.394 1.373v11c0 .757.625 1.372 1.394 1.372h3.49c1.76 0 3.286-.828 4.301-2.336.83-1.225 1.28-2.84 1.28-4.548.012-1.698-.445-3.312-1.274-4.53zm-4.302 8.67h-.697a1.384 1.384 0 01-1.393-1.372v-5.5c0-.757.624-1.372 1.393-1.372h.697c.829 0 1.478.361 1.982 1.106.517.763.811 1.857.811 3.016 0 1.42-.588 4.122-2.793 4.122zM88.618 11h-6.295c-.77 0-1.394.615-1.394 1.372v11c0 .757.625 1.372 1.394 1.372.769 0 1.393-.615 1.393-1.372v-2.75c0-.757.625-1.372 1.394-1.372h.709c.769 0 1.394.615 1.394 1.372v2.75c0 .757.624 1.372 1.393 1.372.77 0 1.394-.615 1.394-1.372v-11c.012-.757-.613-1.372-1.382-1.372zm-2.793 5.5h-.709a1.384 1.384 0 01-1.394-1.372c0-.757.625-1.372 1.394-1.372h.709c.769 0 1.394.615 1.394 1.372 0 .757-.625 1.372-1.394 1.372zM78.124 11c-.77 0-1.394.615-1.394 1.372v3.134a.692.692 0 01-.697.686.7.7 0 01-.613-.354l-2.36-4.122v-.006l-.013-.018c-.006-.012-.012-.018-.018-.03-.018-.023-.03-.053-.048-.077l-.036-.053c-.012-.018-.03-.035-.042-.053a.537.537 0 01-.054-.06c-.012-.01-.024-.029-.036-.04-.018-.018-.042-.036-.06-.054a.26.26 0 00-.042-.035c-.018-.018-.042-.03-.06-.047-.018-.012-.03-.024-.048-.036-.018-.012-.042-.024-.06-.036-.018-.011-.042-.023-.06-.035a.215.215 0 00-.054-.024.368.368 0 00-.072-.03.307.307 0 01-.049-.017.3.3 0 00-.078-.024c-.018-.005-.036-.011-.054-.011a1.514 1.514 0 00-.078-.018c-.024-.006-.042-.006-.066-.012s-.042-.006-.066-.006c-.03 0-.06-.006-.09-.006h-.042c-.036 0-.066 0-.102.006h-.036c-.03.006-.06.006-.09.012-.018 0-.03.006-.048.006l-.067.018-.072.017a.085.085 0 01-.036.012l-.09.036c-.012.005-.018.011-.03.011a.718.718 0 00-.096.048s-.006 0-.006.006l-.03.017c-.024.018-.054.03-.078.048l-.054.035c-.018.012-.036.03-.054.042-.018.017-.036.035-.06.053-.012.012-.03.024-.042.041-.018.018-.036.042-.054.06-.012.011-.024.029-.036.04-.018.018-.03.042-.048.06-.012.018-.024.03-.036.047-.013.018-.025.042-.037.06l-.035.059c-.012.017-.018.035-.025.053a.351.351 0 00-.03.07c-.006.018-.012.036-.018.048a.29.29 0 00-.024.077.168.168 0 00-.012.053l-.018.077c-.006.024-.006.047-.012.065 0 .024-.006.041-.006.065 0 .03-.006.06-.006.089v11.035c0 .757.625 1.372 1.394 1.372.769 0 1.394-.615 1.394-1.372V20.22c0-.379.312-.686.697-.686a.7.7 0 01.612.355l2.361 4.122v.006l.012.017.054.09c.006.005.012.01.018.023.018.03.042.053.06.077l.018.017a1.191 1.191 0 00.186.184 1.312 1.312 0 00.205.136c.012.006.018.012.03.017.03.012.054.03.084.042.012.006.018.012.03.012.036.011.066.023.102.035.012.006.024.006.042.012.03.006.06.018.09.024.012 0 .018.006.03.006l.12.017h.03a.946.946 0 00.132.006c.043 0 .09 0 .133-.006h.018l.126-.017c.006 0 .012 0 .018-.006.036-.006.072-.018.102-.024.006 0 .018-.006.024-.006a.813.813 0 00.108-.041l.036-.018.072-.036.036-.017s.006 0 .006-.006c.012-.006.018-.012.03-.018.024-.018.054-.03.079-.047l.053-.036c.019-.012.037-.03.055-.041a.53.53 0 01.06-.053c.012-.012.03-.024.042-.042.018-.018.036-.041.054-.059.012-.012.024-.03.036-.041.018-.018.03-.042.048-.06.012-.017.024-.029.036-.047l.036-.059.036-.059a.207.207 0 00.024-.053c.012-.024.024-.048.03-.071.006-.018.012-.036.018-.047a.29.29 0 00.024-.077c.006-.018.012-.036.012-.054l.018-.076c.006-.024.006-.048.012-.066 0-.023.006-.04.006-.065 0-.03.006-.059.006-.088V12.372A1.413 1.413 0 0078.124 11zm-29.4-8.25h4.962c.77 0 1.394-.615 1.394-1.372C55.08.621 54.461 0 53.686 0h-4.968c-.769 0-1.393.615-1.393 1.372a1.39 1.39 0 001.4 1.378zm1.334 2.75H49.5c-.769 0-1.393.615-1.393 1.372 0 .757.624 1.372 1.393 1.372h5.167c.769 0 1.393-.615 1.393-1.372A1.38 1.38 0 0054.666 5.5h-4.608zm.42 5.5h-1.76c-.769 0-1.393.615-1.393 1.372 0 .757.624 1.372 1.393 1.372h3.713c.769 0 1.394-.615 1.394-1.372A1.38 1.38 0 0052.43 11h-1.953zM44.05 22c.77 0 1.395-.615 1.395-1.372 0-.757-.625-1.372-1.394-1.372h-.98c-.768 0-1.393.615-1.393 1.372 0 .757.625 1.372 1.394 1.372h.979zm.602 4.122c0-.757-.625-1.372-1.394-1.372h-1.646c-.769 0-1.394.615-1.394 1.372 0 .757.625 1.372 1.394 1.372h1.64c.775.006 1.4-.61 1.4-1.372zm-.602 4.128h-.63c-.769 0-1.394.615-1.394 1.372a1.39 1.39 0 001.4 1.378h.63c.77 0 1.395-.615 1.395-1.372a1.39 1.39 0 00-1.4-1.378z" fill="#fff"/><path d="M48.466 15.353a21.723 21.723 0 01-1.748-1.26c-.385-.32-.595-.585-.355-.923a1.37 1.37 0 00.265-.798c0-.757-.625-1.372-1.394-1.372h-.474a1.384 1.384 0 01-1.394-1.372c0-.757.625-1.372 1.394-1.372h1.255c.769 0 1.394-.615 1.394-1.372a1.4 1.4 0 00-1.4-1.384h-.703a1.385 1.385 0 01-1.393-1.378 1.38 1.38 0 011.393-1.372h.012v-.006a1.386 1.386 0 001.304-1.372C46.622.615 45.997 0 45.228 0h-1.814c-.03 0-.066 0-.096.006-.018 0-.03 0-.048.006-.024 0-.042.006-.066.012s-.048.006-.078.011c-.006 0-.012 0-.018.006a1.4 1.4 0 00-.998.852c-.114.278-.234.562-.354.858-.895 2.129-1.916 4.541-1.532 7.286.433 3.128 2.625 5.949 6.692 8.616.295.195.577.385.853.58.709.508.54 1.029.162 1.029h-.384c-.769 0-1.394.615-1.394 1.372 0 .757.625 1.372 1.394 1.372h3.496c.769 0 1.394.615 1.394 1.372 0 .757-.625 1.372-1.394 1.372h-4.289c-.769 0-1.394.615-1.394 1.372 0 .757.625 1.372 1.394 1.372h4.776c.769 0 1.393.615 1.393 1.372 0 .757-.624 1.372-1.393 1.372h-3.983c-.769 0-1.394.615-1.394 1.372 0 .757.625 1.372 1.394 1.372h6.127c.042 0 .09 0 .132-.006.012 0 .018 0 .03-.006.03-.005.067-.005.097-.011.012 0 .03-.006.042-.006l.078-.018c.018-.006.03-.006.048-.012.03-.012.06-.018.09-.03.018-.005.042-.017.06-.023l.072-.036c.018-.006.03-.017.048-.023a.547.547 0 00.06-.036c.012-.012.03-.017.042-.03l.066-.047c.012-.005.018-.017.03-.023.03-.024.06-.053.09-.077.03-.03.06-.06.09-.095l.013-.012c.024-.03.042-.059.066-.088.006-.012.012-.018.018-.03.018-.023.03-.047.042-.07.006-.013.018-.03.024-.042.012-.024.024-.042.03-.065.006-.018.018-.036.024-.053.006-.018.018-.042.024-.06a.696.696 0 00.018-.059v-.006l.06-.195c1.297-4.264 3.082-10.113-6.602-16.47z" fill="#fff"/></svg>