<svg data-name="Layer 1" xmlns="http://www.w3.org/2000/svg" xmlns:xlink="http://www.w3.org/1999/xlink" viewBox="0 0 491 276"><defs><linearGradient id="a" x1="-3415.99" y1="9244.95" x2="-3377.6" y2="9263.27" gradientTransform="matrix(1 0 0 -1 3694 9393.75)" gradientUnits="userSpaceOnUse"><stop offset="0" stop-color="#d34395"/><stop offset=".35" stop-color="#b63386"/><stop offset="1" stop-color="#823389"/></linearGradient><linearGradient id="b" x1="-3291.17" y1="9242.2" x2="-3272.77" y2="9265.19" xlink:href="#a"/><linearGradient id="c" x1="-3357.08" y1="9243.4" x2="-3322.74" y2="9264.36" xlink:href="#a"/><linearGradient id="d" x1="-3529.03" y1="9244.95" x2="-3490.64" y2="9263.27" xlink:href="#a"/><linearGradient id="e" x1="-3473.55" y1="9245.89" x2="-3433.39" y2="9262.62" xlink:href="#a"/><linearGradient id="f" x1="-3580.4" y1="9243.4" x2="-3546.06" y2="9264.36" xlink:href="#a"/><linearGradient id="g" x1="-3627.52" y1="9242.2" x2="-3609.13" y2="9265.19" xlink:href="#a"/></defs><path fill="none" d="M0 0h491v276H0z"/><path d="M293.75 62.18v151.64h13.78V62.18z" fill="url(#a)"/><path d="M406.79 109.05V167h13.78v-57.9z" fill="url(#b)"/><path d="M350.27 78.72v118.56h13.78V78.72z" fill="url(#c)"/><path d="M180.71 62.18v151.64h13.79V62.18z" fill="url(#d)"/><path d="M237.23 51.15v173.7H251V51.15z" fill="url(#e)"/><path d="M127 78.72v118.56h13.78V78.72z" fill="url(#f)"/><path d="M70.43 109.05V167h13.78v-57.9z" fill="url(#g)"/></svg>