<svg xmlns="http://www.w3.org/2000/svg" viewBox="0 0 32 32"><path d="M32 32H0V0h32v32zm-14-7.7h8.6c-.1-.2-.2-.4-.3-.5l-1.4-1.4-.3-.6v-12c0-.2.1-.4.3-.6.5-.5 1-.9 1.4-1.4.1-.2.2-.3.3-.5H21c-.3 0-.5.1-.6.4-1.3 3.3-2.6 6.5-3.9 9.7l-.2.4-.2-.5-4.4-9.7c-.1-.2-.2-.3-.4-.3h-6l.3.6L7.4 10c.2.3.3.6.3.9v9.3c0 .4-.1.9-.4 1.2-.7.8-1.3 1.6-1.9 2.4-.2 0-.3.2-.4.4h6.5c-.1-.2-.1-.4-.3-.6-.7-.8-1.4-1.6-2-2.5-.1-.2-.2-.5-.2-.8v-8.1c.1.2.2.3.2.5L14.4 24c.1.2.3.4.5.4.3 0 .4-.2.4-.4l3.6-9.2 1-2.6v9.7c0 .2-.1.4-.3.5-.5.5-1 .9-1.4 1.4 0 .1-.1.3-.2.5z" fill="#a0a0a0"/></svg>