<svg xmlns="http://www.w3.org/2000/svg" width="1920" height="1080"><style/><path d="M0 0h1920v1080H0z" fill="#021B4F"/><g id="curve1"><linearGradient id="gradient1" gradientUnits="userSpaceOnUse" x1="509.562" y1="-1016.382" x2="1408.152" y2="-1638.59" gradientTransform="matrix(1 0 0 -1 0 -698)"><stop offset="0" stop-color="#AD3B8F"/><stop offset="1" stop-color="#D84498"/></linearGradient><path d="M1920 1080V180.6c-30.8 25.5-91.3 66.1-234 49.7-152.4-17.5-252.6 45.1-359.5 115.7-86.7 57.2-206.2 41.4-285.2-3.1-75.3-42.4-173.6-184.4-296.7-112.4-130 76-225.7 80.6-300.9 42.7C367.4 234.6 146.3 23.7 0 91.2V1080h1920z" fill="url(#gradient1)" style="animation:anim1 16s ease-in-out -12s infinite alternate"/></g><g id="curve2"><linearGradient id="gradient2" gradientUnits="userSpaceOnUse" x1="423.43" y1="-1023.418" x2="1488.562" y2="-1777.18" gradientTransform="matrix(1 0 0 -1 0 -698)"><stop offset="0" stop-color="#D34395"/><stop offset=".3" stop-color="#B63386"/><stop offset="1" stop-color="#823389"/></linearGradient><path d="M1653.4 302.3c99.1 12.7 172.4 56.3 266.6 28V1080H0V335.6c87.9 60.7 153 74.1 289.2-14.1 135.5-87.7 241.6-114.6 300.6-100 61.8 15.3 144.7 91.6 241.5 120.7 101.4 30.5 148.4 46.1 233.9 53.6 84.9 7.4 199.8-5.1 279-40.4 88.2-39.4 209.3-66 309.2-53.1z" fill="url(#gradient2)" style="animation:anim2 16s ease-in-out -4s infinite alternate"/></g><path d="M1920 1080V420.9c-128.7 3.1-331.2 214.6-524.8 249.8-186.9 34-230.1-39.6-411.2-44.8-145.3-4.2-250.9 91.6-544.5 58.3C220.2 659.4 19.7 537.7 0 529.7V369v711h1920z" fill="#021B4F" style="animation:anim3 16s ease-in-out -8s infinite alternate" id="curve3"/><g id="curve4"><linearGradient id="gradient4" gradientUnits="userSpaceOnUse" x1="369.253" y1="-1145.08" x2="1190.462" y2="-2196.5" gradientTransform="matrix(1 0 0 -1 0 -698)"><stop offset="0" stop-color="#643187"/><stop offset="1" stop-color="#3722BA" stop-opacity="0"/></linearGradient><path d="M246.7 452.1c-79.5 32-162.4 27.1-246.7-13.5V1080h1727.2c-336.4-221.1-502.8-609.8-779.1-650.9-80.6-12-139.3 17.9-237.2 24.9-92 6.6-130.5-23.3-216.8-38.1-80.2-13.7-171.3 5.6-247.4 36.2z" fill="url(#gradient4)" style="animation:anim4 16s ease-in-out 0s infinite alternate"/></g><g id="gradient"><linearGradient id="gradient5" gradientUnits="userSpaceOnUse" x1="960" y1="1080" x2="960" y2="740"><stop offset="0" stop-color="#1B1B1B"/><stop offset="1" stop-color="#1B1B1B" stop-opacity="0"/></linearGradient><path fill="url(#gradient5)" d="M0 740h1920v340H0z"/></g></svg>