<svg width="96" height="36" viewBox="0 0 96 36" fill="none" xmlns="http://www.w3.org/2000/svg"><path d="M39.394 12h-5.948a1.49 1.49 0 0 0-1.481 1.497 1.49 1.49 0 0 0 1.48 1.496h.007c.817 0 1.48.671 1.48 1.497v9a1.49 1.49 0 0 0 1.481 1.497 1.49 1.49 0 0 0 1.481-1.497v-9c.007-.825.67-1.49 1.481-1.49h.007a1.49 1.49 0 0 0 1.48-1.497c0-.826-.65-1.503-1.468-1.503zm-20.789 0h-6.683a1.49 1.49 0 0 0-1.48 1.497v12a1.49 1.49 0 0 0 1.48 1.497 1.49 1.49 0 0 0 1.481-1.497v-3A1.49 1.49 0 0 1 14.883 21h.754c.817 0 1.48.671 1.48 1.497v3a1.49 1.49 0 0 0 1.481 1.497 1.49 1.49 0 0 0 1.481-1.497v-12A1.472 1.472 0 0 0 18.605 12zm-2.968 6h-.753a1.49 1.49 0 0 1-1.481-1.497 1.49 1.49 0 0 1 1.48-1.496h.754c.817 0 1.48.67 1.48 1.496A1.482 1.482 0 0 1 15.638 18zM7.43 12H1.48A1.49 1.49 0 0 0 0 13.497v12a1.49 1.49 0 0 0 1.48 1.497 1.49 1.49 0 0 0 1.482-1.497v-3A1.49 1.49 0 0 1 4.442 21H5.79a1.49 1.49 0 0 0 1.48-1.497 1.49 1.49 0 0 0-1.48-1.497H4.45a1.49 1.49 0 0 1-1.481-1.496 1.49 1.49 0 0 1 1.48-1.497h2.975a1.49 1.49 0 0 0 1.48-1.497C8.904 12.69 8.247 12 7.43 12zm21.567 4.767a1.49 1.49 0 0 0 1.481-1.497v-1.767a1.49 1.49 0 0 0-1.48-1.497h-5.943c-.817 0-1.48.67-1.48 1.497 0 3.619 1.889 5.529 3.408 7.058.663.664 1.257 1.27 1.704 1.961.504.82-.02 1.477-.83 1.477h-.255c-.817 0-1.066 0-1.066-.393v.032a1.49 1.49 0 0 0-1.481-1.4 1.49 1.49 0 0 0-1.48 1.497v1.768a1.49 1.49 0 0 0 1.48 1.496h5.942a1.49 1.49 0 0 0 1.481-1.496c0-3.62-1.89-5.53-3.408-7.058-.664-.665-1.258-1.271-1.704-1.962-.505-.82.019-1.477.83-1.477h.255c.816 0 1.066 0 1.066.393v-.032c.05.78.689 1.4 1.48 1.4zm42.985-2.114c-1.078-1.638-2.706-2.542-4.576-2.542h-3.708a1.49 1.49 0 0 0-1.481 1.497v12a1.49 1.49 0 0 0 1.48 1.497h3.709c1.87 0 3.491-.903 4.57-2.549.88-1.335 1.36-3.096 1.36-4.96.012-1.852-.473-3.614-1.354-4.943zm-4.57 9.458h-.74a1.49 1.49 0 0 1-1.48-1.496v-6a1.49 1.49 0 0 1 1.48-1.497h.74c.881 0 1.57.393 2.106 1.206.55.832.862 2.026.862 3.29 0 1.549-.625 4.497-2.968 4.497zm26.744-12.109h-6.689c-.817 0-1.48.67-1.48 1.497v12a1.49 1.49 0 0 0 1.48 1.497 1.49 1.49 0 0 0 1.48-1.497v-3a1.49 1.49 0 0 1 1.482-1.497h.753c.817 0 1.48.67 1.48 1.497v3a1.49 1.49 0 0 0 1.481 1.497 1.49 1.49 0 0 0 1.481-1.497v-12a1.471 1.471 0 0 0-1.468-1.497zm-2.968 6h-.753a1.49 1.49 0 0 1-1.48-1.497 1.49 1.49 0 0 1 1.48-1.497h.753a1.49 1.49 0 0 1 1.481 1.497 1.49 1.49 0 0 1-1.48 1.497zm-8.183-6.001a1.49 1.49 0 0 0-1.481 1.497v3.42a.74.74 0 1 1-1.391.361l-2.509-4.497v-.007l-.013-.019c-.006-.013-.012-.02-.019-.032-.019-.026-.032-.058-.05-.084l-.04-.058c-.012-.02-.031-.039-.044-.058a.577.577 0 0 1-.057-.065c-.013-.013-.026-.032-.039-.045-.019-.02-.044-.039-.063-.058a.3.3 0 0 0-.045-.039c-.02-.019-.045-.032-.064-.051-.02-.013-.032-.026-.051-.039-.02-.013-.045-.026-.064-.039-.019-.013-.044-.026-.064-.038a.224.224 0 0 0-.057-.026c-.026-.013-.051-.026-.077-.033a.435.435 0 0 1-.05-.019.313.313 0 0 0-.084-.026c-.019-.006-.038-.013-.057-.013l-.083-.019c-.026-.006-.045-.006-.07-.013-.026-.006-.045-.006-.07-.006-.032 0-.064-.007-.096-.007h-.045c-.038 0-.07 0-.109.007h-.038c-.032.006-.064.006-.096.013-.019 0-.031.006-.05.006l-.07.02-.077.019c-.013.006-.026.013-.039.013l-.095.038c-.013.007-.02.013-.032.013a.765.765 0 0 0-.102.052s-.007 0-.007.006l-.032.02c-.025.02-.057.032-.083.051l-.057.04c-.02.012-.038.031-.058.044a.576.576 0 0 1-.063.058c-.013.013-.032.026-.045.045-.02.02-.038.046-.058.065-.012.013-.025.032-.038.045-.019.02-.032.045-.05.065l-.04.051-.037.065c-.013.02-.026.045-.039.064-.013.02-.019.039-.025.058a.4.4 0 0 0-.032.078c-.007.02-.013.039-.02.051a.325.325 0 0 0-.025.084.19.19 0 0 0-.013.058l-.019.084c-.006.026-.006.052-.013.071 0 .026-.006.045-.006.071 0 .032-.006.065-.006.097v12.039a1.49 1.49 0 0 0 1.48 1.496 1.49 1.49 0 0 0 1.481-1.496v-3.42a.74.74 0 1 1 1.391-.361l2.509 4.497v.006l.013.02.057.096a.098.098 0 0 1 .02.026c.018.032.044.058.063.084l.02.02c.057.07.12.135.184.186l.013.013a1.386 1.386 0 0 0 .217.149c.013.006.02.013.032.02.032.012.058.031.09.044.012.007.019.013.031.013l.109.039c.013.006.025.006.045.013.032.006.063.02.095.026.013 0 .02.006.032.006.045.006.083.013.128.02h.032c.044.006.09.006.14.006.045 0 .096 0 .14-.007h.02l.134-.019c.006 0 .013 0 .019-.006.038-.007.077-.02.108-.026.007 0 .02-.007.026-.007.038-.013.077-.026.115-.045l.038-.02.077-.038.038-.02s.006 0 .006-.006c.013-.006.02-.013.032-.02.026-.018.058-.031.083-.05l.058-.04c.019-.012.038-.032.057-.045.02-.019.038-.038.064-.058.013-.012.032-.025.045-.045.019-.02.038-.045.057-.064.013-.013.026-.033.038-.046.02-.019.032-.045.052-.064.012-.02.025-.032.038-.052.013-.019.025-.045.038-.064.013-.02.026-.045.038-.065a.23.23 0 0 0 .026-.058c.013-.026.026-.051.032-.077a.422.422 0 0 1 .019-.052.317.317 0 0 0 .026-.084.19.19 0 0 0 .012-.058l.02-.084c.006-.025.006-.051.012-.07 0-.026.007-.046.007-.072 0-.032.006-.064.006-.096V13.498c-.02-.826-.683-1.497-1.506-1.497zM51.768 3h5.272a1.49 1.49 0 0 0 1.481-1.497A1.49 1.49 0 0 0 57.041 0h-5.279a1.49 1.49 0 0 0-1.48 1.497c0 .826.663 1.503 1.486 1.503zm1.418 3h-.594a1.49 1.49 0 0 0-1.48 1.497 1.49 1.49 0 0 0 1.48 1.497h5.49a1.49 1.49 0 0 0 1.48-1.497c0-.826-.657-1.497-1.48-1.497h-4.896zm.446 6h-1.87a1.49 1.49 0 0 0-1.48 1.497 1.49 1.49 0 0 0 1.48 1.496h3.944c.817 0 1.481-.67 1.481-1.496S56.53 12 55.707 12h-2.075zm-6.828 12a1.49 1.49 0 0 0 1.481-1.497 1.49 1.49 0 0 0-1.48-1.497h-1.041c-.817 0-1.48.67-1.48 1.497a1.49 1.49 0 0 0 1.48 1.496h1.04zm.639 4.497A1.49 1.49 0 0 0 45.962 27h-1.749a1.49 1.49 0 0 0-1.48 1.497 1.49 1.49 0 0 0 1.48 1.497h1.743a1.483 1.483 0 0 0 1.487-1.497zM46.803 33h-.67a1.49 1.49 0 0 0-1.48 1.497c0 .826.663 1.503 1.486 1.503h.67a1.49 1.49 0 0 0 1.482-1.497c0-.826-.664-1.503-1.488-1.503z" fill="#FB356D"/><path d="M51.496 16.748a23.103 23.103 0 0 1-1.858-1.374c-.408-.348-.631-.639-.376-1.006.172-.245.28-.549.28-.871A1.49 1.49 0 0 0 48.063 12h-.504a1.49 1.49 0 0 1-1.481-1.497 1.49 1.49 0 0 1 1.48-1.497h1.335a1.49 1.49 0 0 0 1.48-1.496c0-.826-.67-1.51-1.487-1.51h-.747c-.816 0-1.48-.671-1.48-1.503 0-.832.664-1.497 1.48-1.497h.013v-.006a1.495 1.495 0 0 0 1.385-1.497A1.49 1.49 0 0 0 48.056 0h-1.928c-.032 0-.07 0-.102.006-.02 0-.032 0-.051.007-.026 0-.045.006-.07.013-.026.006-.051.006-.083.013-.007 0-.013 0-.02.006a1.5 1.5 0 0 0-1.059.93c-.121.302-.249.612-.377.935-.95 2.322-2.036 4.955-1.627 7.948.46 3.413 2.79 6.49 7.11 9.4.313.213.613.42.907.632.753.555.574 1.123.172 1.123h-.409a1.49 1.49 0 0 0-1.48 1.497 1.49 1.49 0 0 0 1.48 1.496h3.715c.817 0 1.48.671 1.48 1.497A1.49 1.49 0 0 1 54.235 27h-4.559a1.49 1.49 0 0 0-1.48 1.497 1.49 1.49 0 0 0 1.48 1.497h5.075c.817 0 1.48.67 1.48 1.496a1.49 1.49 0 0 1-1.48 1.497H50.52a1.49 1.49 0 0 0-1.481 1.497 1.49 1.49 0 0 0 1.48 1.497h6.511c.044 0 .095 0 .14-.007.013 0 .02 0 .032-.006.032-.007.07-.007.102-.013.013 0 .032-.007.045-.007l.083-.019c.019-.006.032-.006.05-.013.033-.013.065-.02.096-.032.02-.007.045-.02.064-.026l.077-.039c.02-.006.032-.019.051-.026.026-.012.045-.025.064-.038.013-.013.032-.02.044-.032l.07-.052c.014-.007.02-.02.033-.026.032-.026.063-.058.095-.084.032-.032.064-.064.096-.103l.013-.013c.025-.032.045-.064.07-.097.006-.012.013-.019.02-.032a.48.48 0 0 0 .044-.077c.006-.013.02-.032.025-.045.013-.026.026-.046.032-.071.007-.02.02-.04.026-.058.006-.02.02-.046.025-.065l.02-.065v-.006l.063-.213c1.38-4.652 3.275-11.032-7.014-17.968z" fill="#FB356D"/></svg>